<svg xmlns="http://www.w3.org/2000/svg" width="22.454" height="22.454" viewBox="0 0 22.454 22.454">
  <g id="box-select-gray" transform="translate(-20.691 -22.884)">
    <g id="Gruppe_12371" data-name="Gruppe 12371" transform="translate(20.691 22.884)">
      <g id="Gruppe_2168" data-name="Gruppe 2168" transform="translate(0 0)">
        <path id="Pfad_2373" data-name="Pfad 2373" d="M149.135,151.572h-4.461a.243.243,0,0,1-.243-.243v-1.076a.243.243,0,0,1,.243-.243h2.9a.243.243,0,0,0,.243-.243v-2.9a.243.243,0,0,1,.243-.243h1.076a.243.243,0,0,1,.243.243v4.461A.243.243,0,0,1,149.135,151.572Z" transform="translate(-129.379 -131.572)" fill="#dadada"/>
        <path id="Pfad_2374" data-name="Pfad 2374" d="M25.4,151.572H20.934a.243.243,0,0,1-.243-.243v-4.461a.243.243,0,0,1,.243-.243H22.01a.243.243,0,0,1,.243.243v2.9a.243.243,0,0,0,.243.243h2.9a.243.243,0,0,1,.243.243v1.076A.243.243,0,0,1,25.4,151.572Z" transform="translate(-20.691 -131.572)" fill="#dadada"/>
        <path id="Pfad_2375" data-name="Pfad 2375" d="M22.01,27.832H20.934a.243.243,0,0,1-.243-.243V23.127a.243.243,0,0,1,.243-.243H25.4a.243.243,0,0,1,.243.243V24.2a.243.243,0,0,1-.243.243H22.5a.243.243,0,0,0-.243.243v2.9A.243.243,0,0,1,22.01,27.832Z" transform="translate(-20.691 -22.884)" fill="#dadada"/>
        <path id="Pfad_2376" data-name="Pfad 2376" d="M149.135,27.832h-1.076a.243.243,0,0,1-.243-.243v-2.9a.243.243,0,0,0-.243-.243h-2.9a.243.243,0,0,1-.243-.243V23.127a.243.243,0,0,1,.243-.243h4.461a.243.243,0,0,1,.243.243v4.461A.243.243,0,0,1,149.135,27.832Z" transform="translate(-129.379 -22.884)" fill="#dadada"/>
      </g>
      <g id="Gruppe_2169" data-name="Gruppe 2169" transform="translate(0 0)">
        <path id="Pfad_2377" data-name="Pfad 2377" d="M85.377,176.014H84.012a.243.243,0,0,1-.243-.243v-1.076a.243.243,0,0,1,.243-.243h1.365a.243.243,0,0,1,.243.243v1.076A.243.243,0,0,1,85.377,176.014Zm-3.7,0H80.307a.243.243,0,0,1-.243-.243v-1.076a.243.243,0,0,1,.243-.243h1.364a.243.243,0,0,1,.243.243v1.076A.243.243,0,0,1,81.672,176.014Z" transform="translate(-72.842 -156.014)" fill="#dadada"/>
        <path id="Pfad_2378" data-name="Pfad 2378" d="M22.01,87.812H20.934a.243.243,0,0,1-.243-.243V86.2a.243.243,0,0,1,.243-.243H22.01a.243.243,0,0,1,.243.243v1.364A.243.243,0,0,1,22.01,87.812Zm0-3.7H20.934a.243.243,0,0,1-.243-.243V82.5a.243.243,0,0,1,.243-.243H22.01a.243.243,0,0,1,.243.243v1.364A.243.243,0,0,1,22.01,84.108Z" transform="translate(-20.691 -75.035)" fill="#dadada"/>
        <path id="Pfad_2379" data-name="Pfad 2379" d="M85.377,24.447H84.012a.243.243,0,0,1-.243-.243V23.127a.243.243,0,0,1,.243-.243h1.365a.243.243,0,0,1,.243.243V24.2A.243.243,0,0,1,85.377,24.447Zm-3.7,0H80.307a.243.243,0,0,1-.243-.243V23.127a.243.243,0,0,1,.243-.243h1.364a.243.243,0,0,1,.243.243V24.2A.243.243,0,0,1,81.672,24.447Z" transform="translate(-72.842 -22.884)" fill="#dadada"/>
        <path id="Pfad_2380" data-name="Pfad 2380" d="M173.576,87.8H172.5a.243.243,0,0,1-.243-.243V86.2a.243.243,0,0,1,.243-.243h1.076a.243.243,0,0,1,.243.243v1.364A.243.243,0,0,1,173.576,87.8Zm0-3.7H172.5a.243.243,0,0,1-.243-.243V82.492a.243.243,0,0,1,.243-.243h1.076a.243.243,0,0,1,.243.243v1.364A.243.243,0,0,1,173.576,84.1Z" transform="translate(-153.82 -75.028)" fill="#dadada"/>
      </g>
    </g>
    <g id="Gruppe_12465" data-name="Gruppe 12465" transform="translate(23.145 25.338)">
      <rect id="Rechteck_14932" data-name="Rechteck 14932" width="19.441" height="19.441" rx="2" transform="translate(0.279 0.279)" fill="#fff"/>
      <g id="Gruppe_12371-2" data-name="Gruppe 12371" transform="translate(0 0)">
        <g id="Gruppe_2168-2" data-name="Gruppe 2168">
          <path id="Pfad_2373-2" data-name="Pfad 2373" d="M172.135,174.572h-4.461a.243.243,0,0,1-.243-.243v-1.076a.243.243,0,0,1,.243-.243h2.9a.243.243,0,0,0,.243-.243v-2.9a.243.243,0,0,1,.243-.243h1.076a.243.243,0,0,1,.243.243v4.461A.243.243,0,0,1,172.135,174.572Z" transform="translate(-152.379 -154.572)" fill="#b7b7b7"/>
          <path id="Pfad_2374-2" data-name="Pfad 2374" d="M48.4,174.572H43.934a.243.243,0,0,1-.243-.243v-4.461a.243.243,0,0,1,.243-.243H45.01a.243.243,0,0,1,.243.243v2.9a.243.243,0,0,0,.243.243h2.9a.243.243,0,0,1,.243.243v1.076A.243.243,0,0,1,48.4,174.572Z" transform="translate(-43.691 -154.572)" fill="#b7b7b7"/>
          <path id="Pfad_2375-2" data-name="Pfad 2375" d="M45.01,50.832H43.934a.243.243,0,0,1-.243-.243V46.127a.243.243,0,0,1,.243-.243H48.4a.243.243,0,0,1,.243.243V47.2a.243.243,0,0,1-.243.243H45.5a.243.243,0,0,0-.243.243v2.9A.243.243,0,0,1,45.01,50.832Z" transform="translate(-43.691 -45.884)" fill="#b7b7b7"/>
          <path id="Pfad_2376-2" data-name="Pfad 2376" d="M172.135,50.832h-1.076a.243.243,0,0,1-.243-.243v-2.9a.243.243,0,0,0-.243-.243h-2.9a.243.243,0,0,1-.243-.243V46.127a.243.243,0,0,1,.243-.243h4.461a.243.243,0,0,1,.243.243v4.461A.243.243,0,0,1,172.135,50.832Z" transform="translate(-152.379 -45.884)" fill="#b7b7b7"/>
        </g>
        <g id="Gruppe_2169-2" data-name="Gruppe 2169">
          <path id="Pfad_2377-2" data-name="Pfad 2377" d="M108.377,199.014h-1.365a.243.243,0,0,1-.243-.243v-1.076a.243.243,0,0,1,.243-.243h1.365a.243.243,0,0,1,.243.243v1.076A.243.243,0,0,1,108.377,199.014Zm-3.7,0h-1.365a.243.243,0,0,1-.243-.243v-1.076a.243.243,0,0,1,.243-.243h1.364a.243.243,0,0,1,.243.243v1.076A.243.243,0,0,1,104.672,199.014Z" transform="translate(-95.842 -179.014)" fill="#b7b7b7"/>
          <path id="Pfad_2378-2" data-name="Pfad 2378" d="M45.01,110.812H43.934a.243.243,0,0,1-.243-.243V109.2a.243.243,0,0,1,.243-.243H45.01a.243.243,0,0,1,.243.243v1.364A.243.243,0,0,1,45.01,110.812Zm0-3.7H43.934a.243.243,0,0,1-.243-.243V105.5a.243.243,0,0,1,.243-.243H45.01a.243.243,0,0,1,.243.243v1.364A.243.243,0,0,1,45.01,107.108Z" transform="translate(-43.691 -98.035)" fill="#b7b7b7"/>
          <path id="Pfad_2379-2" data-name="Pfad 2379" d="M108.377,47.447h-1.365a.243.243,0,0,1-.243-.243V46.127a.243.243,0,0,1,.243-.243h1.365a.243.243,0,0,1,.243.243V47.2A.243.243,0,0,1,108.377,47.447Zm-3.7,0h-1.365a.243.243,0,0,1-.243-.243V46.127a.243.243,0,0,1,.243-.243h1.364a.243.243,0,0,1,.243.243V47.2A.243.243,0,0,1,104.672,47.447Z" transform="translate(-95.842 -45.884)" fill="#b7b7b7"/>
          <path id="Pfad_2380-2" data-name="Pfad 2380" d="M196.576,110.8H195.5a.243.243,0,0,1-.243-.243V109.2a.243.243,0,0,1,.243-.243h1.076a.243.243,0,0,1,.243.243v1.364A.243.243,0,0,1,196.576,110.8Zm0-3.7H195.5a.243.243,0,0,1-.243-.243v-1.364a.243.243,0,0,1,.243-.243h1.076a.243.243,0,0,1,.243.243v1.364A.243.243,0,0,1,196.576,107.1Z" transform="translate(-176.82 -98.028)" fill="#b7b7b7"/>
        </g>
      </g>
    </g>
  </g>
</svg>
