<svg xmlns="http://www.w3.org/2000/svg" width="20" height="20" viewBox="0 0 20 20">
  <g id="h-mark-orange" transform="translate(-43.588 -45.974)">
    <g id="Gruppe_2168" data-name="Gruppe 2168" transform="translate(43.588 45.974)">
      <path id="Pfad_2373" data-name="Pfad 2373" d="M171.878,174.5h-4.315a.235.235,0,0,1-.235-.235v-1.041a.235.235,0,0,1,.235-.235h2.8a.235.235,0,0,0,.235-.235v-2.8a.235.235,0,0,1,.235-.235h1.041a.235.235,0,0,1,.235.235v4.315A.235.235,0,0,1,171.878,174.5Z" transform="translate(-152.113 -154.5)" fill="#e18200"/>
      <path id="Pfad_2374" data-name="Pfad 2374" d="M48.139,174.5H43.823a.235.235,0,0,1-.235-.235v-4.315a.235.235,0,0,1,.235-.235h1.041a.235.235,0,0,1,.235.235v2.8a.235.235,0,0,0,.235.235h2.8a.235.235,0,0,1,.235.235v1.041A.235.235,0,0,1,48.139,174.5Z" transform="translate(-43.588 -154.5)" fill="#e18200"/>
      <path id="Pfad_2375" data-name="Pfad 2375" d="M44.864,50.76H43.823a.235.235,0,0,1-.235-.235V46.209a.235.235,0,0,1,.235-.235h4.315a.235.235,0,0,1,.235.235V47.25a.235.235,0,0,1-.235.235h-2.8a.235.235,0,0,0-.235.235v2.8A.235.235,0,0,1,44.864,50.76Z" transform="translate(-43.588 -45.974)" fill="#e18200"/>
      <path id="Pfad_2376" data-name="Pfad 2376" d="M171.878,50.76h-1.041a.235.235,0,0,1-.235-.235v-2.8a.235.235,0,0,0-.235-.235h-2.8a.235.235,0,0,1-.235-.235V46.209a.235.235,0,0,1,.235-.235h4.315a.235.235,0,0,1,.235.235v4.315A.235.235,0,0,1,171.878,50.76Z" transform="translate(-152.113 -45.974)" fill="#e18200"/>
    </g>
    <g id="Gruppe_2169" data-name="Gruppe 2169" transform="translate(43.588 45.974)">
      <path id="Pfad_2377" data-name="Pfad 2377" d="M108.1,199.053H106.78a.235.235,0,0,1-.235-.235v-1.041a.235.235,0,0,1,.235-.235H108.1a.235.235,0,0,1,.235.235v1.041A.235.235,0,0,1,108.1,199.053Zm-3.584,0H103.2a.235.235,0,0,1-.235-.235v-1.041a.235.235,0,0,1,.235-.235h1.32a.235.235,0,0,1,.235.235v1.041A.235.235,0,0,1,104.517,199.053Z" transform="translate(-95.648 -179.053)" fill="#f3ba66"/>
      <path id="Pfad_2378" data-name="Pfad 2378" d="M44.864,110.721H43.823a.235.235,0,0,1-.235-.235v-1.32a.235.235,0,0,1,.235-.235h1.041a.235.235,0,0,1,.235.235v1.32A.235.235,0,0,1,44.864,110.721Zm0-3.584H43.823a.235.235,0,0,1-.235-.235v-1.32a.235.235,0,0,1,.235-.235h1.041a.235.235,0,0,1,.235.235v1.32A.235.235,0,0,1,44.864,107.137Z" transform="translate(-43.588 -98.034)" fill="#f3ba66"/>
      <path id="Pfad_2379" data-name="Pfad 2379" d="M108.1,47.486H106.78a.235.235,0,0,1-.235-.235V46.209a.235.235,0,0,1,.235-.235H108.1a.235.235,0,0,1,.235.235V47.25A.235.235,0,0,1,108.1,47.486Zm-3.584,0H103.2a.235.235,0,0,1-.235-.235V46.209a.235.235,0,0,1,.235-.235h1.32a.235.235,0,0,1,.235.235V47.25A.235.235,0,0,1,104.517,47.486Z" transform="translate(-95.648 -45.974)" fill="#f3ba66"/>
      <path id="Pfad_2380" data-name="Pfad 2380" d="M196.43,110.713h-1.041a.235.235,0,0,1-.235-.235v-1.32a.235.235,0,0,1,.235-.235h1.041a.235.235,0,0,1,.235.235v1.32A.235.235,0,0,1,196.43,110.713Zm0-3.583h-1.041a.235.235,0,0,1-.235-.235v-1.32a.235.235,0,0,1,.235-.235h1.041a.235.235,0,0,1,.235.235v1.32A.235.235,0,0,1,196.43,107.129Z" transform="translate(-176.666 -98.027)" fill="#f3ba66"/>
    </g>
  </g>
</svg>
