<svg xmlns="http://www.w3.org/2000/svg" width="20" height="20" viewBox="0 0 20 20">
  <g id="zoom-in-gray" transform="translate(-71.848 -74.209)">
    <path id="Pfad_8506" data-name="Pfad 8506" d="M89.654,76.4a7.512,7.512,0,0,0-10.612,0,7.533,7.533,0,0,0-.5,10.061l-6.48,6.48a.741.741,0,0,0,1.048,1.048l6.48-6.48A7.5,7.5,0,0,0,89.654,76.4Zm-1.048,9.564a6.019,6.019,0,1,1,0-8.516A6.028,6.028,0,0,1,88.606,85.967Z" fill="#bcbcbc"/>
    <path id="Pfad_8507" data-name="Pfad 8507" d="M126.166,97.841h-2.594V95.247a.556.556,0,0,0-1.112,0v2.594h-2.594a.556.556,0,0,0,0,1.112h2.594v2.594a.556.556,0,0,0,1.112,0V98.952h2.594a.556.556,0,0,0,0-1.112Z" transform="translate(-38.669 -16.687)" fill="#bcbcbc"/>
  </g>
</svg>
